<svg xmlns="http://www.w3.org/2000/svg" viewBox="0 0 425.2 427.07"><title>catalyst-logo-white</title><path d="M418.65,263.83c-15.93,77-90.26,162.23-204.29,163.24-113.25,1-190.79-82.4-207.94-163.24Z" style="fill:#fff"/><path d="M425.11,230.21H326.63c3-44.14-10.83-81.39-47.12-108.35a108.35,108.35,0,0,0-73.26-21.65c-65.07,4.11-101.67,56.12-106.11,97.41,10.23,0,20.4.16,30.55-.24,1.1,0,2.46-3.2,3.07-5.11,9.93-31.28,30.68-51.16,62.77-58.16,48.82-10.66,96.7,27.56,97.71,77.5.12,6,0,12,0,18.63h-32.8c0-5.06,0-10,0-15-.19-27.79-21.52-49.69-48.57-49.87S164.18,187,163.7,214.69c-.08,5,0,10,0,15.85H65.85c-1-17.59-.32-34.72,3.93-51.63A147.53,147.53,0,0,1,219.58,67.07c69.23,2.93,127.34,55.3,138.33,125,.75,4.74,2.35,6,6.8,5.84,8.58-.29,17.19-.08,25.8-.08C388.09,134.65,335.09,48.08,233.8,36c-56.13-6.71-105.35,10.27-146,49.57S30.49,174,33.22,230.45H.16C-2.4,150.36,26,84.6,92.44,39.54c73.82-50,152.44-52.76,229.08-7.14C395.13,76.22,427.12,144.57,425.11,230.21Z" style="fill:#fff"/></svg>