<svg xmlns="http://www.w3.org/2000/svg" viewBox="0 0 5103.64 1060.16"><title>pace-title</title><path d="M1495.77,651.32c-38.4,185.62-217.6,391.12-492.52,393.54-273,2.39-459.95-198.65-501.29-393.54Z" style="fill:#293662"/><path d="M1511.34,570.27H1273.91c7.17-106.41-26.09-196.2-113.58-261.21-52.21-38.78-111.74-56.3-176.61-52.19C826.85,266.79,738.6,392.17,727.9,491.7c24.67,0,49.18.38,73.64-.58,2.66-.09,6-7.7,7.41-12.3,23.93-75.42,74-123.35,151.33-140.23C1078,312.91,1193.39,405,1195.84,525.43c.29,14.49,0,29,0,44.93h-79.09c0-12.22.06-24.2,0-36.18-.44-67-51.87-119.79-117.08-120.23-65-.41-117.4,52.1-118.57,118.92-.2,12.1,0,24.19,0,38.19H645.22c-2.48-42.39-.75-83.7,9.48-124.46C696.1,281.77,846.09,169.76,1015.85,177c166.9,7.09,307,133.32,333.48,301.27,1.81,11.43,5.66,14.43,16.39,14.08,20.7-.69,41.45-.2,62.21-.2C1422.1,339.9,1294.32,131.19,1050.13,102c-135.33-16.18-254,24.75-352,119.5S560,434.77,566.57,570.85H486.86c-6.18-193.08,62.3-351.61,222.47-460.24C887.31-10,1076.84-16.58,1261.61,93.38,1439.07,199,1516.18,363.81,1511.34,570.27Z" style="fill:#293662"/><path d="M411.46,570.52,169,570.75a39.9,39.9,0,0,1-39.9-39.9h0A39.9,39.9,0,0,1,169,491l242.41-.23q-1.29,19.51-1.29,39.36Q410.09,550.46,411.46,570.52Z" style="fill:#293662"/><path d="M445.3,731.11H39.9A39.89,39.89,0,0,1,0,691.22H0a39.9,39.9,0,0,1,39.9-39.9H422.58A585.6,585.6,0,0,0,445.3,731.11Z" style="fill:#293662"/><path d="M444.73,330.59a586.28,586.28,0,0,0-22.47,79.79H97a39.89,39.89,0,0,1-39.89-39.89h0A39.89,39.89,0,0,1,97,330.59Z" style="fill:#293662"/><path d="M533.38,890.7H242.08a39.89,39.89,0,0,1-39.89-39.89h0a39.89,39.89,0,0,1,39.89-39.9H481.24A588.2,588.2,0,0,0,533.38,890.7Z" style="fill:#293662"/><path d="M530.27,171v2.5a588,588,0,0,0-49.87,77.29l-202.33-.54a39.89,39.89,0,0,1-39.89-39.89h0a39.89,39.89,0,0,1,39.89-39.9Z" style="fill:#293662"/><path d="M2261.52,58.26q133.49,0,204.11,63.64t70.64,192.17q0,42.87-16.86,94.16t-57.67,95.45q-40.83,44.16-108.86,73.36t-170.42,29.22H1907.71l-80.36,378H1704.24l193.09-926Zm-53,444q101.05,0,152.92-52.55t51.84-135.62q0-42.82-12.31-72t-33.05-46.71a127.84,127.84,0,0,0-47.95-25.3,211.29,211.29,0,0,0-58.31-7.8h-260.5l-71.28,340Z" style="fill:#293662"/><path d="M3060,59.26l167.19,925h-127l-42.77-278H2667.28l-162,278H2369.2l556-925Zm-18.14,543-68.68-434.17h-2.6L2723,602.26Z" style="fill:#293662"/><path d="M4021.85,916.68q-101.73,88.61-272.79,88.58-190.53,0-293.49-105.72t-103-299q0-112.85,35-214.68T3488.1,206.2q65.49-77.83,160.14-123.89T3860.9,36.26q75.21,0,139.39,20.16t111.52,59.78q47.34,39.63,74.56,99.89T4213.6,356.7h-123q0-108.84-64.23-162.64T3861,140.26q-97.32,0-169.33,40.88t-120,105.76q-48,64.88-72,147.28a593.5,593.5,0,0,0-24,166.74q0,67.47,16.85,123.26T3543,819.56q33.7,39.59,84.89,61.64t121.19,22.06q114,0,185.33-60.26t101.07-170.44h123.13Q4123.6,828.1,4021.85,916.68Z" style="fill:#293662"/><path d="M5081.7,58.26l-20.75,104h-514.5l-62.22,294h479.54l-20.74,104H4462.2l-67.39,320h521l-23.33,104H4248.37l195.69-926Z" style="fill:#293662"/></svg>