<?xml version="1.0" encoding="UTF-8"?>
<svg width="921px" height="186px" viewBox="0 0 921 186" version="1.1" xmlns="http://www.w3.org/2000/svg" xmlns:xlink="http://www.w3.org/1999/xlink">
    <!-- Generator: Sketch 52.6 (67491) - http://www.bohemiancoding.com/sketch -->
    <title>pace-title</title>
    <desc>Created with Sketch.</desc>
    <g id="Page-1" stroke="none" stroke-width="1" fill="none" fill-rule="evenodd">
        <g id="pace-title" fill="#FFFFFF">
            <path d="M271,115 C264.044948,148.486592 231.58804,185.559615 181.794216,185.996193 C132.348145,186.427359 98.4875479,150.158937 91,115 L271,115 Z" id="Path"></path>
            <path d="M273.961185,99.8578521 L230.879537,99.8578521 C232.180532,80.7110711 226.145509,64.5547938 210.270458,52.857282 C200.796959,45.8794399 189.995247,42.7269956 178.224592,43.4665245 C149.760547,45.2514701 133.747594,67.8115999 131.80608,85.7204347 C136.282449,85.7204347 140.729786,85.7888097 145.16805,85.616073 C145.650707,85.5998789 146.25675,84.2305809 146.512594,83.4028843 C150.85469,69.8322591 159.939886,61.2080207 173.971407,58.1707341 C195.331688,53.550028 216.269191,70.1201536 216.713743,91.7896098 C216.766364,94.396854 216.713743,97.0076969 216.713743,99.8740462 L202.362871,99.8740462 C202.362871,97.6752522 202.373758,95.5196424 202.362871,93.3640327 C202.283033,81.3084521 192.951065,71.8097342 181.118718,71.7305632 C169.324475,71.6567903 159.8165,81.1051266 159.604204,93.1283191 C159.567914,95.3055209 159.604204,97.4809235 159.604204,100 L116.803803,100 C116.353807,92.3725961 116.667716,84.939521 118.523948,77.6054096 C126.035974,47.946882 153.251643,27.7924704 184.054577,29.0951928 C214.338564,30.3709252 239.759694,53.0839988 244.564487,83.3039206 C244.892912,85.3605666 245.591494,85.9003688 247.538451,85.8373918 C251.294464,85.7132374 255.059549,85.801405 258.826449,85.801405 C257.768596,58.4064477 234.582929,20.8524145 190.274679,15.60014 C165.719065,12.6888072 144.186407,20.0535074 126.404317,37.1022576 C108.622228,54.1510077 101.340643,75.4767899 102.532769,99.9622139 L88.0693981,99.9622139 C86.9480378,65.2205497 99.3737265,36.6956066 128.436556,17.149372 C160.731008,-4.55247233 195.121206,-5.7364383 228.647703,14.0491086 C260.847801,33.0537417 274.839402,62.7086706 273.961185,99.8578521 Z" id="Path"></path>
            <path d="M75,99.9597399 L31.2067573,100 C27.2265752,100 24,96.8730465 24,93.0157539 C24.0049833,89.1618797 27.2300993,86.040257 31.2067573,86.0402601 L74.990969,86 C74.8356354,88.2767359 74.7579686,90.57331 74.7579686,92.8897224 C74.7543561,95.2621489 74.8350333,97.6188214 75,99.9597399 Z" id="Path"></path>
            <path d="M81,129 L7.25780373,129 C5.33308179,129.000465 3.48702634,128.263265 2.1258718,126.950625 C0.764717255,125.637984 -6.04797447e-08,123.857464 0,122.000877 C1.12026798e-15,118.134399 3.24942941,115 7.25780373,115 L76.8672356,115 C77.8999667,119.755043 79.2810196,124.433447 81,129 Z" id="Path"></path>
            <path d="M80,57 C78.3091047,61.5677983 76.9531028,66.2461555 75.9421599,71 L17.2037049,71 C13.2252086,71 10.0000002,67.866386 10.0000002,64.0008773 C9.9995212,62.1442906 10.7582693,60.3635855 12.1092779,59.0506159 C13.4602865,57.7376462 15.2928507,56.9999999 17.2037049,57 L80,57 Z" id="Path"></path>
            <path d="M97,158 L44.2266677,158 C40.2354895,158 37.0000002,154.866386 37.0000002,151.000877 C36.9995197,149.144291 37.7606864,147.363586 39.1160015,146.050616 C40.4713166,144.737646 42.3097224,144 44.2266677,144 L87.5540627,144 C90.3064816,148.906469 93.4654964,153.588504 97,158 Z" id="Path"></path>
            <path d="M96,28.0941118 L96,28.5298145 C92.6221032,32.7860372 89.5965291,37.2898759 86.9510425,42 L50.2380775,41.9058882 C46.2405978,41.9058882 43.0000002,38.7933392 43.0000002,34.9538155 C42.9995189,33.1097092 43.7618874,31.3409746 45.1193423,30.0368311 C46.4767973,28.7326876 48.3181056,27.9999999 50.2380775,28 L96,28.0941118 Z" id="Path"></path>
            <path d="M410.137315,8 C426.288167,8 438.635722,11.8257307 447.179981,19.4771922 C455.724241,27.1286537 459.99758,38.6809899 460,54.1342009 C460,59.2884773 458.980061,64.9489237 456.940182,71.11554 C454.900304,77.2821562 451.41158,83.0201512 446.474009,88.3295248 C441.534019,93.6388985 434.948576,98.0489489 426.717678,101.559676 C418.486781,105.070403 408.177289,106.826969 395.789202,106.829374 L345.926517,106.829374 L331.342476,175 L309,175 L344.042715,8 L410.137315,8 Z M400.518671,88.0734341 C412.744633,88.0734341 421.995469,84.9143808 428.27118,78.5962743 C434.546891,72.2781677 437.682932,64.1253456 437.679302,54.1378078 C437.679302,48.9895428 436.934614,44.6612491 435.445236,41.1529266 C433.955859,37.644604 431.956512,34.8366235 429.447195,32.7289849 C426.908106,30.6073127 423.94067,29.0514154 420.745045,28.1662419 C417.300874,27.2092581 413.738916,26.7357712 410.162722,26.7595464 L362.886182,26.7595464 L349.950014,88.077041 L400.518671,88.0734341 Z" id="Shape" fill-rule="nonzero"></path>
            <path d="M554.796326,8 L585,175 L562.056842,175 L554.330237,124.80973 L483.849579,124.80973 L454.583503,175 L430,175 L530.444061,8 L554.796326,8 Z M551.519248,106.033514 L539.111878,27.648227 L538.642175,27.648227 L493.915663,106.033514 L551.519248,106.033514 Z" id="Shape" fill-rule="nonzero"></path>
            <path d="M728.25905,163.002578 C715.971534,173.671137 699.496986,179.00361 678.835406,178.999998 C655.822132,178.999998 638.097453,172.635705 625.661371,159.907119 C613.225288,147.178533 607.004831,129.178877 607,105.908152 C607,92.3211207 609.113747,79.3974883 613.341242,67.1372545 C617.568737,54.8770207 623.640024,44.0615754 631.555103,34.6909185 C639.46535,25.3202616 649.13665,17.8621433 660.569005,12.3165638 C672.001359,6.77098419 684.844489,3.9987964 699.098394,4.00000039 C708.182677,4.00000039 716.600827,5.21362267 724.352845,7.64086722 C732.104863,10.0681118 738.839866,13.6668389 744.557855,18.4370487 C750.275844,23.2084625 754.77873,29.2217923 758.066513,36.4770382 C761.354297,43.732284 762.998792,52.1969382 763,61.8710007 L740.715062,61.8710007 C740.715062,48.7667697 736.836034,38.9759201 729.077976,32.498452 C721.319919,26.0209839 711.332764,22.7822499 699.116512,22.7822499 C687.36166,22.7822499 677.13535,25.2432062 668.437581,30.1651187 C659.739812,35.0870313 652.492677,41.4537323 646.696178,49.2652217 C640.89847,57.0767111 636.55019,65.9428961 633.651336,75.8637766 C630.772899,85.6442996 629.308727,95.7840831 629.303056,105.976779 C629.303056,114.100102 630.320674,121.520295 632.355911,128.237357 C634.391148,134.954419 637.439776,140.696249 641.501794,145.462847 C645.572268,150.229445 650.699012,153.940143 656.882025,156.594942 C663.065038,159.24974 670.38404,160.577742 678.83903,160.578946 C692.608585,160.578946 703.80118,156.951323 712.416815,149.696077 C721.03245,142.440831 727.136348,132.180425 730.728511,118.91486 L753.037002,118.91486 C748.808299,137.641726 740.548982,152.337632 728.25905,163.002578 Z" id="Path"></path>
            <polygon id="Path" points="921 8 917.240085 26.7559395 824.012312 26.7559395 812.738003 79.7775378 899.630999 79.7775378 895.872895 98.5334773 808.746151 98.5334773 796.535034 156.24406 890.940612 156.24406 886.713199 175 770 175 805.45917 8"></polygon>
        </g>
    </g>
</svg>