<svg xmlns="http://www.w3.org/2000/svg" viewBox="0 0 2080.77 1417.32"><title>pace-logo</title><path d="M2059.05,875.55c-52.86,255.52-299.55,538.41-678,541.74C1005.23,1420.58,747.9,1143.84,691,875.55Z" style="fill:#293662"/><path d="M2080.48,764H1753.64c9.88-146.48-35.91-270.09-156.35-359.58-71.88-53.38-153.83-77.5-243.12-71.84-216,13.65-337.43,186.25-352.15,323.26,34,0,67.7.53,101.37-.8,3.65-.12,8.18-10.59,10.19-16.93,33-103.83,101.82-169.8,208.33-193,162-35.35,320.89,91.46,324.26,257.21.4,19.94,0,39.93,0,61.84H1537.33c0-16.82.08-33.31,0-49.8-.6-92.23-71.39-164.91-161.17-165.51-89.45-.56-161.61,71.72-163.21,163.7-.28,16.65,0,33.31,0,52.57H888.2c-3.41-58.35-1-115.22,13-171.32,57-226.91,263.47-381.09,497.16-371.18,229.75,9.75,422.58,183.52,459.06,414.72,2.49,15.73,7.79,19.87,22.56,19.39,28.49-1,57.07-.28,85.64-.28-8-209.53-183.92-496.84-520.07-537.09C1259.3,97,1096,153.38,961.08,283.81,826,414.4,770.86,577.46,779.93,764.79H670.21C661.7,499,756,280.76,976.45,131.23c245-166.1,505.9-175.09,760.26-23.72C1981,253,2087.14,479.78,2080.48,764Z" style="fill:#293662"/><path d="M566.41,764.33l-333.81.32a54.92,54.92,0,0,1-54.92-54.93h0A54.92,54.92,0,0,1,232.6,654.8l333.7-.32q-1.77,26.87-1.78,54.18Q564.52,736.73,566.41,764.33Z" style="fill:#293662"/><path d="M613,985.4H54.92A54.92,54.92,0,0,1,0,930.48H0a54.92,54.92,0,0,1,54.92-54.92h526.8A804.82,804.82,0,0,0,613,985.4Z" style="fill:#293662"/><path d="M612.21,434.05a805.23,805.23,0,0,0-30.93,109.84H133.5A54.92,54.92,0,0,1,78.58,489h0a54.92,54.92,0,0,1,54.92-54.92Z" style="fill:#293662"/><path d="M734.24,1205.09h-401a54.92,54.92,0,0,1-54.92-54.92h0a54.92,54.92,0,0,1,54.92-54.92H662.46A810.53,810.53,0,0,0,734.24,1205.09Z" style="fill:#293662"/><path d="M730,214.36v3.44a809.61,809.61,0,0,0-68.65,106.4l-278.52-.74a54.92,54.92,0,0,1-54.92-54.92h0a54.92,54.92,0,0,1,54.92-54.92Z" style="fill:#293662"/></svg>