<?xml version="1.0" standalone="no"?>
<!DOCTYPE svg PUBLIC "-//W3C//DTD SVG 20010904//EN"
 "http://www.w3.org/TR/2001/REC-SVG-20010904/DTD/svg10.dtd">
<svg version="1.0" xmlns="http://www.w3.org/2000/svg"
 width="700.000000pt" height="700.000000pt" viewBox="0 0 700.000000 700.000000"
 preserveAspectRatio="xMidYMid meet">
<metadata>
Created by potrace 1.14, written by Peter Selinger 2001-2017
</metadata>
<g transform="translate(0.000000,700.000000) scale(0.100000,-0.100000)"
fill="#000000" stroke="none">
<path d="M895 6990 c-227 -21 -432 -117 -596 -280 -179 -177 -267 -370 -290
-630 -6 -74 -9 -1026 -6 -2670 3 -2331 5 -2561 20 -2621 100 -403 361 -664
767 -766 59 -15 289 -17 2620 -20 1644 -3 2596 0 2670 6 257 23 451 111 626
285 170 170 261 367 284 611 12 133 12 5057 0 5190 -11 117 -29 190 -74 302
-99 243 -316 448 -566 538 -180 64 53 59 -2790 61 -1422 1 -2621 -2 -2665 -6z
m2935 -855 c396 -60 793 -219 1155 -460 174 -116 273 -194 404 -320 498 -479
770 -1169 771 -1952 l0 -123 -614 0 -613 0 -6 188 c-8 258 -44 423 -134 622
-114 251 -379 524 -641 663 -99 52 -256 107 -382 134 -115 24 -387 24 -517 0
-195 -36 -377 -109 -544 -218 -121 -79 -312 -269 -393 -393 -104 -158 -183
-348 -210 -506 l-12 -75 189 -3 c121 -1 194 1 202 8 7 6 25 45 40 88 129 362
360 580 725 683 75 21 106 24 255 24 191 0 247 -11 396 -75 233 -100 445 -311
539 -537 59 -142 72 -211 77 -415 l5 -188 -205 0 -205 0 -4 158 c-4 137 -8
166 -31 230 -91 257 -316 422 -577 422 -187 0 -367 -89 -476 -234 -102 -135
-134 -242 -134 -443 l0 -133 -616 0 -617 0 6 208 c3 128 12 243 22 302 143
797 769 1402 1566 1515 133 19 374 19 506 0 393 -56 756 -237 1038 -520 257
-257 438 -595 507 -947 12 -61 29 -120 38 -131 19 -22 20 -23 240 -19 l146 2
-8 92 c-18 208 -95 464 -208 693 -230 468 -617 844 -1082 1052 -611 273 -1323
266 -1899 -18 -593 -294 -1045 -841 -1199 -1454 -54 -212 -86 -493 -79 -684
l4 -91 -207 0 -208 0 0 129 c0 971 399 1747 1162 2259 410 275 825 434 1258
481 119 13 444 5 570 -14z m2256 -3282 c-3 -10 -14 -55 -26 -101 -11 -45 -36
-124 -54 -175 -293 -804 -982 -1434 -1801 -1647 -642 -166 -1311 -100 -1885
186 -593 297 -1047 789 -1288 1399 -41 104 -102 304 -102 336 0 18 73 19 2581
19 2453 0 2580 -1 2575 -17z"/>
</g>
</svg>
