<?xml version="1.0" encoding="UTF-8"?>
<svg width="100%" height="100%" viewBox="0 0 879 249" version="1.1" xmlns="http://www.w3.org/2000/svg" xmlns:xlink="http://www.w3.org/1999/xlink">
    <g id="Page-1" stroke="none" stroke-width="1" fill="none" fill-rule="evenodd">
        <g id="Project-Catalyst-Facebook" transform="translate(-162.000000, -187.000000)" fill="#293662">
            <g id="catalyst-title" transform="translate(162.000000, 187.000000)">
                <path d="M364.622604,151.445677 C358.960766,152.610052 353.934915,150.622851 349.467493,144.661249 C344.053845,137.426596 335.630892,135.95172 327.037308,137.845771 C318.443724,139.739822 313.216219,145.608274 310.982508,153.991778 C309.023084,161.109959 309.066027,168.631482 311.106603,175.726787 C313.417874,183.76874 318.397189,189.450893 326.835654,191.251794 C335.69294,193.145844 344.364083,191.934894 349.77773,184.281066 C353.748773,178.676538 358.262731,177.434538 364.250318,178.071063 C365.16552,178.071063 366.080721,178.071063 367.011434,178.071063 C379.746691,178.071063 380.227559,178.847313 374.457138,190.196093 C365.599852,207.630676 346.178973,216.588604 324.369264,213.343878 C305.3571,210.778616 290.249084,196.086241 287.140742,177.139563 C284.038365,158.664805 286.846016,141.758073 300.760176,127.770042 C317.528523,110.909884 362.807713,109.326334 375.930767,141.975423 C379.451965,150.731526 378.924561,151.538827 369.307193,151.585402 L364.622604,151.445677 Z" id="Path"></path>
                <path d="M468.936786,147.986134 C468.936786,137.141727 468.936786,137.141727 457.886784,137.141727 C446.836783,137.141727 446.696515,137.141727 444.592494,147.505882 C443.984666,147.134073 443.252156,146.901693 442.924864,146.405949 C433.230786,132.370188 406.486353,131.440667 394.610329,150.371903 C387.643685,161.495166 386.817662,173.609918 389.217803,186.003526 C391.86731,199.822398 399.488538,209.923189 414.060825,213.145527 C426.295313,215.841137 436.65956,212.185022 444.686006,201.805376 C446.338052,212.990607 446.338052,212.990607 457.310127,212.990607 C458.696335,212.920892 460.085203,212.920892 461.471411,212.990607 C467.222399,213.563811 469.045883,210.899185 468.999127,205.38403 C468.796518,186.297874 468.936786,167.14975 468.936786,147.986134 Z M428.305821,193.408706 C418.440304,193.300262 412.050317,186.142954 412.019147,175.190103 C412.019147,163.757 418.424719,156.692643 428.726625,156.708135 C439.02853,156.723627 445.496444,164.035856 445.449688,175.298547 C445.402932,186.561238 438.576556,193.517151 428.305821,193.408706 Z" id="Shape" fill-rule="nonzero"></path>
                <path d="M617.972828,142.850404 C617.972828,140.585457 617.972828,137.839597 614.85467,137.498304 C608.930171,136.846744 602.834173,136.381344 597.018809,137.699977 C592.778115,138.692831 596.161316,144.091471 593.448519,146.325391 C591.88944,146.433985 591.343763,145.332538 590.50186,144.587898 C576.23629,131.308484 554.643049,133.650997 544.056905,150.079618 C535.606698,163.281466 535.357246,177.72438 540.081254,192.213834 C545.054715,207.292795 558.571928,215.483836 574.380986,213.777369 C582.082835,212.955162 587.820245,208.595915 593.183476,203.243815 C596.410769,213.079269 596.410769,213.110296 607.339911,213.063756 C608.898989,213.063756 610.582794,212.955162 612.188645,213.063756 C616.289022,213.203376 617.957237,211.140102 617.957237,207.215229 C617.972828,185.713747 618.035191,164.305346 617.972828,142.850404 Z M577.561507,193.377334 C567.178042,193.377334 560.972909,186.349794 561.019681,174.761333 C561.019681,163.901999 567.567812,156.688299 577.343236,156.579705 C587.539611,156.455599 594.290422,163.746866 594.321603,174.869926 C594.352785,185.992987 587.7267,193.454901 577.561507,193.377334 Z" id="Shape" fill-rule="nonzero"></path>
                <path d="M709.611849,180.091423 C713.736941,168.82109 718.263726,157.659574 721.848075,146.202697 C724.165542,138.849777 727.549044,135.616357 735.845576,136.03608 C751.156308,136.813344 751.295356,136.269259 745.37809,150.244472 C732.77107,180.355693 719.916853,210.373643 707.572479,240.609226 C705.023265,246.827341 701.82516,249.190225 694.980908,248.988136 C678.140647,248.490687 678.125198,248.848229 685.031249,233.676028 C685.987764,231.10779 687.171865,228.631299 688.569249,226.276472 C696.680384,214.788504 694.749161,203.891258 688.754646,191.921387 C680.73621,176.049649 674.370901,159.276284 667.124954,143.109185 C664.776588,137.901514 666.02802,136.455802 671.60539,136.378076 C690.052428,136.098261 690.145127,135.911717 696.92758,152.731718 C700.604628,161.79462 704.096278,170.919704 707.742426,180.013697 L709.611849,180.091423 Z" id="Path"></path>
                <path d="M810.787175,162.105347 C804.560675,162.398985 799.377113,162.924442 796.575188,156.557142 C795.298756,153.667129 791.718518,152.554397 788.309509,152.43076 C784.433513,152.291669 780.650914,152.678034 779.561276,157.190781 C778.471639,161.703527 781.335829,164.006265 785.196259,165.134451 C791.593988,166.989005 798.069548,168.503557 804.467277,170.342656 C816.920278,173.897216 823.271308,181.361794 822.991116,191.824566 C822.710923,202.287339 815.970737,210.014645 803.673399,212.641929 C791.889747,215.222849 780.324023,214.403755 769.801237,207.758271 C766.039512,205.509697 762.987383,202.259952 760.990739,198.377322 C755.791612,187.71364 757.083611,187.404547 767.139408,187.559093 C772.914487,187.651821 778.284844,187.296365 782.191973,192.999117 C784.573609,196.476405 788.932159,197.635501 793.29071,197.419136 C797.02661,197.295499 800.170992,196.182767 800.949305,192.025476 C801.727617,187.868186 799.39268,185.534539 795.687912,184.468171 C788.200546,182.304525 780.573083,180.573609 773.147981,178.286326 C760.477053,174.237218 754.982167,162.61535 759.776572,150.622571 C760.922194,147.61168 762.837345,144.948633 765.333723,142.895265 C779.343349,131.412488 805.588047,134.735229 816.017435,149.417111 C818.367939,152.739852 821.745816,156.634415 819.940131,160.482613 C818.134445,164.330812 813.246643,161.378981 810.787175,162.105347 Z" id="Path"></path>
                <path d="M852.315355,118 C863.001007,118 863.294399,118 863.12454,128.732312 C863.03189,134.953942 865.070193,137.76923 871.401287,136.913756 C876.89853,136.16716 879.585385,138.298068 878.828742,144.146401 C878.6013,146.213951 878.6013,148.300481 878.828742,150.368031 C879.245667,154.832051 877.284572,156.309688 872.899132,156.480783 C863.30984,156.854081 863.294399,157.040729 863.263515,166.637594 C863.263515,172.34594 863.263515,178.069839 863.263515,183.747077 C863.263515,189.424315 865.873161,192.939536 871.910863,192.628454 C877.08383,192.364035 879.060367,194.183862 878.9986,199.67445 C878.844183,213.673118 879.075809,213.673118 864.992985,212.568779 C848.964508,211.277791 841.151012,203.407428 840.286277,187.122311 C839.869351,178.90976 840.100976,170.6661 840.116418,162.42244 C840.116418,159.14053 839.653167,156.294134 835.48391,156.449675 C830.650661,156.620769 829.863134,153.681049 830.017551,149.776976 C830.125643,147.27277 830.017551,144.75301 830.017551,142.23325 C830.017551,139.122434 830.913169,136.742661 834.650059,136.944864 C839.49875,137.224837 840.348044,134.269563 840.116418,130.349936 C840.116418,130.132179 840.116418,129.898868 840.116418,129.665557 C840.239952,117.206742 839.282567,118.124433 852.315355,118 Z" id="Path"></path>
                <path d="M500.69778,118.130698 C502.760173,118.130698 504.83819,118.130698 506.947455,118.130698 C510.666011,117.975439 512.572162,119.574606 512.462793,123.347399 C512.548658,124.940249 512.548658,126.536525 512.462793,128.129375 C511.540966,134.929718 514.212702,137.972793 521.306082,137.025714 C525.915217,136.404678 528.258845,138.423044 527.930737,143.236072 C527.774475,145.510556 527.774475,147.792982 527.930737,150.067466 C528.243221,154.725235 525.977714,156.945438 521.352955,156.37098 C514.322071,155.50153 511.837825,158.404873 512.41592,165.298371 C512.931518,171.632936 512.60341,178.060657 512.556538,184.441801 C512.556538,189.736131 515.009535,192.872362 520.368631,192.546319 C526.758923,192.173697 528.46196,195.278876 527.899489,200.837147 C527.764598,202.905097 527.764598,204.979556 527.899489,207.047506 C528.055731,211.068713 526.102707,212.543673 522.087292,212.838665 C500.02594,214.391255 489.2765,204.765199 489.057761,182.78053 C488.995265,175.711072 488.995265,168.641614 489.057761,161.572156 C489.057761,158.684339 488.260928,156.479662 484.917352,156.588343 C479.776995,156.759128 478.761423,153.855785 479.042658,149.60169 C479.214524,146.884658 479.136403,144.136574 479.120779,141.404016 C479.105155,138.671459 480.339465,136.979136 483.22994,137.134395 C488.432794,137.398335 489.479614,134.448415 489.073386,130.194319 C488.964016,128.82804 489.229627,127.43071 489.073386,126.095483 C488.12031,119.63671 491.167027,117.369929 497.322956,118.146224 C498.472607,118.223992 499.62625,118.223992 500.775901,118.146224 L500.69778,118.130698 Z" id="Path"></path>
                <path d="M656.905769,163.015542 C656.905769,177.412044 656.748719,191.808545 657,206.205046 C657,211.335549 655.068275,213.045716 650.074058,212.999075 C630.238538,212.828058 633.269619,214.553773 633.159683,196.768031 C632.986927,171.628568 633.285324,146.473558 633.002632,121.334096 C632.924107,114.757724 634.573141,111.850439 641.907415,112.005909 C659.74839,112.503412 656.685898,111.010902 656.890064,126.604521 C657.015705,138.777804 656.905769,150.935541 656.905769,163.015542 Z" id="Path"></path>
                <path d="M384.584454,40 C371.97859,40 364,48.0888612 364,60.929544 C364,73.7702267 372.470526,82.1666492 384.676692,81.9974905 C396.882859,81.8283318 405.045925,73.2781287 404.999806,60.4682021 C404.938314,48.3349102 396.667637,40 384.584454,40 Z M384.399978,75.6617285 C376.513626,75.6617285 370.994717,69.5105032 370.85636,60.8834098 C370.748749,51.917999 376.344523,45.6898834 384.584454,45.6591272 C392.409314,45.6591272 398.035834,51.8103525 398.112699,60.4066898 C398.174191,69.464369 392.547671,75.7386188 384.399978,75.6617285 Z" id="Shape" fill-rule="nonzero"></path>
                <path d="M314.868535,28.4690917 C309.803171,27.915725 304.659152,28.2692649 299.546595,28.0233241 C294.827312,27.7773834 292.782289,29.4528547 293.018254,34.1718427 C293.28568,40.7353862 293.018254,47.2835585 293.018254,53.847102 L293.018254,74.2601836 C293.018254,74.7059512 293.018254,75.1670901 293.018254,75.5974864 C293.159832,77.6726114 293.018254,79.8707067 296.085788,79.9936771 C299.389286,80.1320188 299.814021,77.9800373 299.861214,75.5206299 C299.861214,74.1525845 299.861214,72.8152817 299.861214,71.4472363 C299.861214,57.7206687 299.357824,59.4883678 311.423458,58.9964863 C313.058019,58.9458148 314.682326,58.7242293 316.268589,58.3355205 C324.558797,56.3526233 328.365685,51.1571251 327.972411,42.3647436 C327.752178,34.3870408 323.205935,29.3298843 314.868535,28.4690917 Z M308.576157,53.2015076 C300.018524,53.2015076 299.939869,53.0939085 299.971331,41.7652631 C299.436479,37.3383297 299.357824,32.634713 307.710955,33.1880797 C316.740517,33.7875602 321.066527,36.5543936 321.160913,43.3485066 C321.255298,50.1426196 317.306831,53.2015076 308.607619,53.2015076 L308.576157,53.2015076 Z" id="Shape" fill-rule="nonzero"></path>
                <path d="M498.839252,40.0253394 C505.999607,39.7182158 511.550032,42.1905613 515.199207,48.118048 C516.287826,49.8686529 518.26574,52.3563546 515.797181,54.1223157 C513.328622,55.8882767 511.059387,54.7058506 509.587451,52.0952995 C508.004353,49.0370102 505.163764,46.8261449 501.813789,46.0449633 C495.68907,44.322528 489.239003,47.4177889 486.741779,53.2777256 C483.475921,60.8636801 485.791154,70.3077328 491.801559,73.9317921 C497.474645,77.3715771 504.604335,75.8666712 509.142804,70.0006092 C510.967391,67.6357569 512.945305,65.3937542 515.73585,67.3747018 C518.526395,69.3556495 515.996505,71.9815568 514.81589,73.8550112 C507.992854,84.6043394 489.562989,84.7732575 482.095981,74.008573 C476.882875,66.4840432 476.898207,58.1609919 480.716041,50.1450642 C484.227222,42.6051782 490.942929,39.7182158 498.839252,40.0253394 Z" id="Path"></path>
                <path d="M462.844447,61.7646926 C471.177093,61.3495078 472.42543,59.6887688 469.710298,51.7541266 C465.949684,42.1741226 459.005812,38.1606699 447.973639,39.1448116 C438.517489,40.0059355 431.838889,46.4643652 430.294073,56.2750274 C428.749256,66.0856896 433.414914,75.6656936 441.373059,79.1716983 C450.439103,83.185151 462.454342,80.3711209 467.494501,72.8824179 C468.664816,71.1294156 470.849405,68.8843424 468.025044,67.054454 C467.029958,66.4166845 465.802038,66.2384754 464.662623,66.5664629 C463.523207,66.8944505 462.585702,67.6959906 462.095445,68.7613247 C458.459665,74.7123064 452.857755,75.9886151 446.491239,74.7430608 C440.124723,73.4975065 437.706071,68.6998159 436.754214,62.9333608 C445.414549,60.4576295 454.199717,62.1645002 462.844447,61.7646926 Z M436.801027,56.8747387 C437.581237,50.4009318 441.185809,46.1106893 447.723971,45.0189071 C454.792677,43.7272212 460.207336,46.2183298 463.047302,53.0150581 C462.78203,56.3980451 460.581837,57.6282222 457.429788,57.5205817 C450.579541,57.47445 443.666878,58.2586879 436.847839,56.8747387 L436.801027,56.8747387 Z" id="Shape" fill-rule="nonzero"></path>
                <path d="M540.054087,80.9801564 C532.901622,80.6387426 529.098451,77.0538982 528.519368,69.6979837 C528.128095,64.2664013 528.394161,58.8348189 528.300255,53.3256425 C528.300255,49.9735802 528.832386,46.6370367 524.121463,45.1782689 C521.241696,44.2781781 521.288649,41.2054543 524.293623,40.3208823 C527.815077,39.2656035 528.284604,37.0929705 528.37851,34.2064724 C528.37851,32.0493583 528.89499,30.0474322 531.759106,30.0008757 C534.623222,29.9543193 535.343164,31.7700197 535.296211,34.0202467 C535.202305,38.3810315 537.315178,40.2277695 541.634828,40.0105062 C543.481635,40.0105062 545.547555,40.2898447 545.469301,42.834929 C545.391046,45.3800134 543.340777,45.5972767 541.509621,45.5972767 C536.501331,45.488645 535.249258,48.2509926 535.374465,52.5652209 C535.530974,56.6466672 535.468371,60.759151 535.374465,64.8405972 C535.249258,70.2721796 535.79704,75.0364533 543.012108,75.2537166 C543.970873,75.1485747 544.913091,75.560134 545.481984,76.3325549 C546.050878,77.1049759 546.15948,78.1201782 545.766668,78.9937491 C544.780661,82.0354352 541.932196,80.607705 540.054087,80.9801564 Z" id="Path"></path>
                <path d="M420.873348,67.8543846 C420.873348,75.3275122 421.158315,82.8160801 420.873348,90.2737673 C420.525054,97.0984003 416.40886,100.433515 410.028758,99.9548644 C408.445606,99.8313416 406.561656,99.9548644 406.118373,97.9012983 C405.876553,97.1205326 406.009274,96.275012 406.479518,95.6005633 C406.949762,94.9261147 407.707209,94.4949109 408.540596,94.4272204 C413.828322,93.4390383 413.954975,89.6561534 413.939143,85.5953424 C413.939143,72.4556078 413.939143,59.3467538 413.939143,46.1761385 C413.939143,43.6902427 413.052578,40 417.374582,40 C421.696587,40 420.889179,43.5512796 420.936674,46.0834964 C421.079158,53.3250188 420.936674,60.5665412 420.936674,67.8235039 L420.873348,67.8543846 Z" id="Path"></path>
                <path d="M336.013573,59.6740243 C336.013573,54.7044949 336.013573,49.7195322 336.013573,44.7500029 C336.013573,42.7899711 335.738711,40.4595396 338.349903,39.7341735 C339.192691,39.3708376 340.145427,39.3694734 340.98923,39.7303942 C341.833033,40.091315 342.495361,40.7834925 342.82405,41.6479053 C343.862418,44.17897 345.328351,43.700537 346.992794,42.3424048 C347.515418,41.9174077 348.078014,41.5452274 348.672508,41.2312056 C351.26843,39.95024 353.833811,38.1445414 356.857296,39.4563737 C358.201067,40.0582732 358.063636,41.8022385 357.895665,43.1449375 C357.37648,47.2347675 353.788001,45.768602 351.512752,46.5557014 C346.48888,48.2688001 343.541746,51.5560974 343.327964,56.9423265 C343.083642,63.0384883 343.068372,69.1346501 342.9004,75.230812 C342.9004,77.5766768 342.549188,79.9688415 339.418812,79.9997082 C336.288436,80.0305748 336.028844,77.6075434 336.013573,75.2616786 C335.983033,70.0606494 336.013573,64.8596202 336.013573,59.6740243 Z" id="Path"></path>
                <path d="M417.62197,24 C420.341059,24.3070864 422.062613,25.6736208 421.998256,28.3145636 C422.012059,29.3464858 421.566086,30.3354705 420.771347,31.0353382 C419.976609,31.7352059 418.907859,32.0801279 417.83113,31.9842458 C415.160309,31.9842458 413.116969,30.8940892 413.004344,28.1610204 C412.891719,25.4279517 414.983326,24.2456691 417.62197,24 Z" id="Path"></path>
                <g id="catalyst-logo-white">
                    <path d="M225,141 C216.444334,182.035497 176.523266,227.456997 115.280169,227.995255 C54.455993,228.528183 12.8109017,184.081943 3.6,141 L225,141 Z" id="Path"></path>
                    <path d="M227.952317,123.423064 L175.145194,123.423064 C176.75386,99.7564862 169.337912,79.7841254 149.878423,65.3289616 C138.627561,56.819138 124.66451,52.6931311 110.594814,53.7208646 C75.7028619,55.9245265 56.0771441,83.8107678 53.6963193,105.949259 C59.1818683,105.949259 64.635244,106.035046 70.0778953,105.820578 C70.6677393,105.820578 71.3970009,104.104831 71.7240962,103.080745 C77.0487786,86.3093235 88.175381,75.6502488 105.382738,71.8970534 C131.561087,66.1814731 157.235386,86.6739196 157.77697,113.450287 C157.841317,116.667312 157.77697,119.884337 157.77697,123.439149 L140.188895,123.439149 C140.188895,120.726125 140.188895,118.077441 140.188895,115.396587 C140.087013,100.496402 128.649402,88.7542622 114.144603,88.6577515 C99.639803,88.5612407 88.0359633,100.255125 87.7785768,115.101693 C87.7356791,117.782547 87.7785768,120.463401 87.7785768,123.6 L35.3092739,123.6 C34.7730521,114.168756 35.1376829,104.984151 37.4166256,95.9175036 C46.4937487,59.3524062 80.1022375,34.2628492 117.742651,35.9521656 C154.865286,37.5231459 186.025135,65.6024087 191.918212,102.973511 C192.320379,105.51496 193.178333,106.190535 195.56452,106.104748 C200.165303,105.949259 204.782173,106.061854 209.399043,106.061854 C208.101386,72.1865857 179.681631,25.7702828 125.367725,19.29334 C95.2695953,15.6956342 68.8767584,24.7998137 47.0793424,45.8713247 C25.2819263,66.9428356 16.3484711,93.2849051 17.8123566,123.551745 L0.0848640008,123.551745 C-1.2878638,80.6098283 13.9408353,45.351239 49.5674115,21.1913845 C89.1513046,-5.61715358 131.309062,-7.09698488 172.405101,17.3631253 C211.876387,40.858128 229.030123,77.5053996 227.952317,123.423064 Z" id="Path"></path>
                </g>
            </g>
        </g>
    </g>
</svg>