<svg xmlns="http://www.w3.org/2000/svg" viewBox="0 0 246 246">
  <defs>
    <style>
      .cls-1 {
        fill: #efefef;
      }
    </style>
  </defs>
  <title>Asset 1</title>
  <g id="Layer_2" data-name="Layer 2">
    <g id="Layer_1-2" data-name="Layer 1">
      <path class="cls-1" d="M212.68,90.16a98.38,98.38,0,0,0-18.11-31.83L205.92,38.1a11.14,11.14,0,0,0-3.89-15L165.58,1.47a10.5,10.5,0,0,0-14.56,4L139.31,26.36A93.42,93.42,0,0,0,123,24.93a92.15,92.15,0,0,0-18.08,1.77l-11.77-21a10.49,10.49,0,0,0-14.55-4L42.15,23.38a11.14,11.14,0,0,0-3.9,15l12,21.37a98.73,98.73,0,0,0-17,30.43H10.65A10.81,10.81,0,0,0,0,101.12v43.31a10.81,10.81,0,0,0,10.65,11H33.32a98.57,98.57,0,0,0,17.27,30.85L38.43,207.9a11.12,11.12,0,0,0,3.9,15l36.45,21.66a10.49,10.49,0,0,0,14.55-4L105.45,219a92.52,92.52,0,0,0,33.76.23l11.94,21.3a10.5,10.5,0,0,0,14.56,4l36.55-21.71a11.14,11.14,0,0,0,3.9-15L194.59,187.2a98.34,98.34,0,0,0,18.09-31.81h22.67a10.81,10.81,0,0,0,10.65-11V101.12a10.81,10.81,0,0,0-10.65-11ZM123,155.39c-17.5,0-31.7-14.61-31.7-32.61S105.5,90.16,123,90.16s31.7,14.61,31.7,32.62S140.5,155.39,123,155.39Z"/>
    </g>
  </g>
</svg>
