<?xml version="1.0" encoding="UTF-8"?>
<svg width="100%" height="100%" viewBox="0 0 248 232" version="1.1" xmlns="http://www.w3.org/2000/svg" xmlns:xlink="http://www.w3.org/1999/xlink">
    <title>Tick</title>
    <desc>Tick icon</desc>
    <g id="Page-1" stroke="none" stroke-width="1" fill="none" fill-rule="evenodd">
        <g id="tick_grey-tick" fill="#EFEFEF">
            <path d="M246.33,32.05 L79.89,229 C78.6287022,230.497278 76.745577,231.326689 74.7894889,231.246489 C72.8334009,231.166289 71.0244937,230.185505 69.89,228.59 L64.89,221.54 L47.64,197.43 L1.35,132.61 C-0.67906073,129.757315 -0.0120414489,125.799965 2.84,123.77 L29.19,105.05 C32.0466147,103.028826 36.0000015,103.69965 38.03,106.55 L73.65,156.69 C74.5742503,157.986981 76.0456191,158.784499 77.6368394,158.850962 C79.2280597,158.917426 80.7608105,158.245388 81.79,157.03 L212,3 C213.083728,1.71478791 214.634194,0.913466086 216.309437,0.772768134 C217.984681,0.632070182 219.647084,1.1635542 220.93,2.25 L245.62,23.11 C248.280226,25.3849711 248.597795,29.3836536 246.33,32.05 Z" id="Path"></path>
        </g>
    </g>
</svg>